<svg width="100" height="58" viewBox="0 0 100 58" fill="none" xmlns="http://www.w3.org/2000/svg">
<g clip-path="url(#clip0)">
<path d="M56.656 0.930011L44.464 13.122C43.9983 13.5852 43.6292 14.1361 43.3779 14.7429C43.1266 15.3496 42.9981 16.0002 43 16.657V18C43 18.2652 43.1054 18.5196 43.2929 18.7071C43.4804 18.8947 43.7348 19 44 19H45.343C45.9998 19.0019 46.6504 18.8734 47.2572 18.6221C47.8639 18.3708 48.4149 18.0017 48.878 17.536L61.07 5.34401C61.6544 4.75818 61.9826 3.96449 61.9826 3.13701C61.9826 2.30954 61.6544 1.51584 61.07 0.930011C60.4757 0.361905 59.6852 0.0448608 58.863 0.0448608C58.0408 0.0448608 57.2503 0.361905 56.656 0.930011ZM59.656 3.93001L47.464 16.122C46.9001 16.6824 46.138 16.9979 45.343 17H45V16.657C45.0021 15.862 45.3176 15.0999 45.878 14.536L58.07 2.34401C58.2836 2.13997 58.5676 2.0261 58.863 2.0261C59.1584 2.0261 59.4424 2.13997 59.656 2.34401C59.8659 2.55453 59.9838 2.8397 59.9838 3.13701C59.9838 3.43432 59.8659 3.7195 59.656 3.93001Z" fill="#111238"/>
<path d="M61 8.979C60.7348 8.979 60.4804 9.08436 60.2929 9.27189C60.1054 9.45943 60 9.71378 60 9.979V15H56C55.2044 15 54.4413 15.3161 53.8787 15.8787C53.3161 16.4413 53 17.2044 53 18V22H43C42.2044 22 41.4413 21.6839 40.8787 21.1213C40.3161 20.5587 40 19.7956 40 19V5C40 4.20435 40.3161 3.44129 40.8787 2.87868C41.4413 2.31607 42.2044 2 43 2H52.042C52.3072 2 52.5616 1.89464 52.7491 1.70711C52.9366 1.51957 53.042 1.26522 53.042 1C53.042 0.734784 52.9366 0.48043 52.7491 0.292893C52.5616 0.105357 52.3072 0 52.042 0L43 0C41.6744 0.00158786 40.4036 0.528882 39.4662 1.46622C38.5289 2.40356 38.0016 3.67441 38 5V19C38.0016 20.3256 38.5289 21.5964 39.4662 22.5338C40.4036 23.4711 41.6744 23.9984 43 24H54.343C54.9999 24.0019 55.6507 23.8735 56.2576 23.6222C56.8646 23.3709 57.4157 23.0017 57.879 22.536L60.535 19.878C61.0007 19.4149 61.37 18.864 61.6215 18.2572C61.873 17.6504 62.0016 16.9998 62 16.343V9.979C62 9.71378 61.8946 9.45943 61.7071 9.27189C61.5196 9.08436 61.2652 8.979 61 8.979ZM56.465 21.122C56.063 21.523 55.5547 21.8006 55 21.922V18C55 17.7348 55.1054 17.4804 55.2929 17.2929C55.4804 17.1054 55.7348 17 56 17H59.925C59.8013 17.5535 59.524 18.0609 59.125 18.464L56.465 21.122Z" fill="#111238"/>
</g>
<path d="M9.7725 42.976L6.7165 48.144L10.0765 54H8.3165L5.4365 48.832H3.9325V54H2.4125V42.976H3.9325V47.584H5.4525L8.1725 42.976H9.7725ZM14.7036 45.376C15.8876 45.376 16.805 45.7707 17.4556 46.56C18.117 47.3493 18.4476 48.4213 18.4476 49.776C18.4476 50.6507 18.2983 51.424 17.9996 52.096C17.701 52.7573 17.269 53.2747 16.7036 53.648C16.1383 54.0107 15.4663 54.192 14.6876 54.192C13.5036 54.192 12.581 53.7973 11.9196 53.008C11.2583 52.2187 10.9276 51.1467 10.9276 49.792C10.9276 48.9173 11.077 48.1493 11.3756 47.488C11.6743 46.816 12.1063 46.2987 12.6716 45.936C13.237 45.5627 13.9143 45.376 14.7036 45.376ZM14.7036 46.56C13.2423 46.56 12.5116 47.6373 12.5116 49.792C12.5116 51.936 13.237 53.008 14.6876 53.008C16.1383 53.008 16.8636 51.9307 16.8636 49.776C16.8636 47.632 16.1436 46.56 14.7036 46.56ZM25.8074 54V46.768H22.3514V54H20.8794V45.568H27.2794V54H25.8074ZM36.8769 54H35.4209V50.192C35.4209 49.552 35.4422 48.944 35.4849 48.368C35.5275 47.792 35.5649 47.4133 35.5969 47.232L32.0609 54H30.3169V45.568H31.7729V49.376C31.7729 49.9413 31.7515 50.528 31.7089 51.136C31.6662 51.7333 31.6342 52.1173 31.6129 52.288L35.1009 45.568H36.8769V54ZM43.7826 45.376C44.86 45.376 45.6493 45.76 46.1506 46.528C46.652 47.296 46.9026 48.3787 46.9026 49.776C46.9026 51.0987 46.6146 52.1653 46.0386 52.976C45.4626 53.7867 44.6466 54.192 43.5906 54.192C42.652 54.192 41.916 53.872 41.3826 53.232V57.232L39.9106 57.408V45.568H41.1746L41.2866 46.704C41.596 46.2773 41.9693 45.952 42.4066 45.728C42.844 45.4933 43.3026 45.376 43.7826 45.376ZM43.2386 52.992C44.6253 52.992 45.3186 51.92 45.3186 49.776C45.3186 47.6213 44.684 46.544 43.4146 46.544C42.9986 46.544 42.62 46.6667 42.2786 46.912C41.9373 47.1573 41.6386 47.472 41.3826 47.856V51.968C41.596 52.2987 41.8626 52.5547 42.1826 52.736C42.5026 52.9067 42.8546 52.992 43.2386 52.992ZM54.9344 52.032C54.9344 52.3733 54.993 52.6293 55.1104 52.8C55.2277 52.96 55.4037 53.0827 55.6384 53.168L55.3024 54.192C54.865 54.1387 54.513 54.016 54.2464 53.824C53.9797 53.632 53.7824 53.3333 53.6544 52.928C53.089 53.7707 52.2517 54.192 51.1424 54.192C50.3104 54.192 49.6544 53.9573 49.1744 53.488C48.6944 53.0187 48.4544 52.4053 48.4544 51.648C48.4544 50.752 48.7744 50.064 49.4144 49.584C50.065 49.104 50.9824 48.864 52.1664 48.864H53.4624V48.24C53.4624 47.6427 53.3184 47.216 53.0304 46.96C52.7424 46.704 52.2997 46.576 51.7024 46.576C51.0837 46.576 50.3264 46.7253 49.4304 47.024L49.0624 45.952C50.1077 45.568 51.0784 45.376 51.9744 45.376C52.9664 45.376 53.7077 45.6213 54.1984 46.112C54.689 46.592 54.9344 47.28 54.9344 48.176V52.032ZM51.4784 53.088C52.321 53.088 52.9824 52.6507 53.4624 51.776V49.84H52.3584C50.801 49.84 50.0224 50.416 50.0224 51.568C50.0224 52.0693 50.145 52.448 50.3904 52.704C50.6357 52.96 50.9984 53.088 51.4784 53.088ZM64.5175 54H63.0615V50.192C63.0615 49.552 63.0828 48.944 63.1255 48.368C63.1682 47.792 63.2055 47.4133 63.2375 47.232L59.7015 54H57.9575V45.568H59.4135V49.376C59.4135 49.9413 59.3922 50.528 59.3495 51.136C59.3068 51.7333 59.2748 52.1173 59.2535 52.288L62.7415 45.568H64.5175V54ZM61.2055 43.712C60.5548 43.712 60.0055 43.5467 59.5575 43.216C59.1202 42.8747 58.8695 42.416 58.8055 41.84L59.7815 41.632C59.8882 41.9733 60.0535 42.2187 60.2775 42.368C60.5122 42.5173 60.8215 42.592 61.2055 42.592C61.5895 42.592 61.9042 42.5173 62.1495 42.368C62.3948 42.208 62.5708 41.9627 62.6775 41.632L63.6535 41.84C63.5895 42.416 63.3282 42.8747 62.8695 43.216C62.4215 43.5467 61.8668 43.712 61.2055 43.712ZM73.2473 45.568L73.0713 46.768H70.3673V54H68.8953V46.768H66.1113V45.568H73.2473ZM81.33 54H79.874V50.192C79.874 49.552 79.8953 48.944 79.938 48.368C79.9807 47.792 80.018 47.4133 80.05 47.232L76.514 54H74.77V45.568H76.226V49.376C76.226 49.9413 76.2047 50.528 76.162 51.136C76.1193 51.7333 76.0873 52.1173 76.066 52.288L79.554 45.568H81.33V54ZM89.3398 54V50.288H85.8358V54H84.3638V45.568H85.8358V49.104H89.3398V45.568H90.8118V54H89.3398ZM95.3201 54H93.8481V45.568H99.1121L98.9201 46.784H95.3201V54Z" fill="#111238"/>
<defs>
<clipPath id="clip0">
<rect width="24" height="24" fill="white" transform="translate(38)"/>
</clipPath>
</defs>
</svg>
