<svg width="56" height="58" viewBox="0 0 56 58" fill="none" xmlns="http://www.w3.org/2000/svg">
<path d="M10.072 52.752V56.4H8.872L8.632 54H2.28L2.04 56.4H0.84V52.752H1.592C1.88 52.4747 2.09867 52.1227 2.248 51.696C2.408 51.2693 2.54133 50.704 2.648 50C2.76533 49.2853 2.94133 48.0107 3.176 46.176L3.576 42.976H9.176V52.752H10.072ZM7.656 44.224H4.904L4.68 46.24C4.488 47.8827 4.328 49.0827 4.2 49.84C4.08267 50.5973 3.92267 51.2 3.72 51.648C3.528 52.096 3.24533 52.464 2.872 52.752H7.656V44.224ZM18.8612 54H17.4053V50.192C17.4053 49.552 17.4266 48.944 17.4693 48.368C17.5119 47.792 17.5493 47.4133 17.5813 47.232L14.0453 54H12.3013V45.568H13.7573V49.376C13.7573 49.9413 13.7359 50.528 13.6933 51.136C13.6506 51.7333 13.6186 52.1173 13.5973 52.288L17.0853 45.568H18.8612V54ZM23.975 45.376C24.5083 45.376 25.0043 45.4667 25.463 45.648C25.9323 45.8187 26.3057 46.0747 26.583 46.416C26.871 46.7573 27.015 47.168 27.015 47.648C27.015 48.1173 26.8763 48.5013 26.599 48.8C26.3323 49.0987 25.9057 49.328 25.319 49.488C26.023 49.6053 26.5563 49.824 26.919 50.144C27.2817 50.464 27.463 50.9227 27.463 51.52C27.463 52.3947 27.1217 53.0613 26.439 53.52C25.767 53.968 24.9083 54.192 23.863 54.192C22.5937 54.192 21.511 53.84 20.615 53.136L21.383 52.224C21.7563 52.4907 22.1297 52.688 22.503 52.816C22.887 52.944 23.3243 53.008 23.815 53.008C25.191 53.008 25.879 52.5067 25.879 51.504C25.879 51.0133 25.6817 50.672 25.287 50.48C24.903 50.2773 24.3643 50.176 23.671 50.176H22.551L22.647 49.024H23.511C24.1083 49.024 24.5883 48.9173 24.951 48.704C25.3137 48.4907 25.495 48.16 25.495 47.712C25.495 47.296 25.3403 46.9973 25.031 46.816C24.7217 46.624 24.3163 46.528 23.815 46.528C23.3777 46.528 22.9883 46.5867 22.647 46.704C22.3163 46.8107 21.9803 46.9813 21.639 47.216L20.935 46.336C21.3617 46.016 21.8203 45.776 22.311 45.616C22.8017 45.456 23.3563 45.376 23.975 45.376ZM35.4188 52.032C35.4188 52.3733 35.4774 52.6293 35.5948 52.8C35.7121 52.96 35.8881 53.0827 36.1228 53.168L35.7868 54.192C35.3494 54.1387 34.9974 54.016 34.7308 53.824C34.4641 53.632 34.2668 53.3333 34.1388 52.928C33.5734 53.7707 32.7361 54.192 31.6268 54.192C30.7948 54.192 30.1388 53.9573 29.6588 53.488C29.1788 53.0187 28.9388 52.4053 28.9388 51.648C28.9388 50.752 29.2588 50.064 29.8988 49.584C30.5494 49.104 31.4668 48.864 32.6508 48.864H33.9468V48.24C33.9468 47.6427 33.8028 47.216 33.5148 46.96C33.2268 46.704 32.7841 46.576 32.1868 46.576C31.5681 46.576 30.8108 46.7253 29.9148 47.024L29.5468 45.952C30.5921 45.568 31.5628 45.376 32.4588 45.376C33.4508 45.376 34.1921 45.6213 34.6828 46.112C35.1734 46.592 35.4188 47.28 35.4188 48.176V52.032ZM31.9628 53.088C32.8054 53.088 33.4668 52.6507 33.9468 51.776V49.84H32.8428C31.2854 49.84 30.5068 50.416 30.5068 51.568C30.5068 52.0693 30.6294 52.448 30.8748 52.704C31.1201 52.96 31.4828 53.088 31.9628 53.088ZM45.0019 54H43.5459V50.192C43.5459 49.552 43.5672 48.944 43.6099 48.368C43.6525 47.792 43.6899 47.4133 43.7219 47.232L40.1859 54H38.4419V45.568H39.8979V49.376C39.8979 49.9413 39.8765 50.528 39.8339 51.136C39.7912 51.7333 39.7592 52.1173 39.7379 52.288L43.2259 45.568H45.0019V54ZM41.6899 43.712C41.0392 43.712 40.4899 43.5467 40.0419 43.216C39.6045 42.8747 39.3539 42.416 39.2899 41.84L40.2659 41.632C40.3725 41.9733 40.5379 42.2187 40.7619 42.368C40.9965 42.5173 41.3059 42.592 41.6899 42.592C42.0739 42.592 42.3885 42.5173 42.6339 42.368C42.8792 42.208 43.0552 41.9627 43.1619 41.632L44.1379 41.84C44.0739 42.416 43.8125 42.8747 43.3539 43.216C42.9059 43.5467 42.3512 43.712 41.6899 43.712ZM53.0116 54V50.288H49.5076V54H48.0356V45.568H49.5076V49.104H53.0116V45.568H54.4836V54H53.0116Z" fill="#111238"/>
<path d="M35 0H21C19.6744 0.00158786 18.4036 0.528882 17.4662 1.46622C16.5289 2.40356 16.0016 3.67441 16 5V10C16.0024 11.8558 16.7406 13.6349 18.0529 14.9471C19.3651 16.2594 21.1442 16.9976 23 17H25V21C25 21.7956 25.3161 22.5587 25.8787 23.1213C26.4413 23.6839 27.2044 24 28 24C28.7956 24 29.5587 23.6839 30.1213 23.1213C30.6839 22.5587 31 21.7956 31 21V17H33C34.8558 16.9976 36.6349 16.2594 37.9471 14.9471C39.2594 13.6349 39.9976 11.8558 40 10V5C39.9984 3.67441 39.4711 2.40356 38.5338 1.46622C37.5964 0.528882 36.3256 0.00158786 35 0V0ZM18 5C18 4.20435 18.3161 3.44129 18.8787 2.87868C19.4413 2.31607 20.2044 2 21 2H26V3C26 3.26522 26.1054 3.51957 26.2929 3.70711C26.4804 3.89464 26.7348 4 27 4C27.2652 4 27.5196 3.89464 27.7071 3.70711C27.8946 3.51957 28 3.26522 28 3V2H30V5C30 5.26522 30.1054 5.51957 30.2929 5.70711C30.4804 5.89464 30.7348 6 31 6C31.2652 6 31.5196 5.89464 31.7071 5.70711C31.8946 5.51957 32 5.26522 32 5V2H34V7C34 7.26522 34.1054 7.51957 34.2929 7.70711C34.4804 7.89464 34.7348 8 35 8C35.2652 8 35.5196 7.89464 35.7071 7.70711C35.8946 7.51957 36 7.26522 36 7V2.184C36.5829 2.39008 37.0879 2.77123 37.4459 3.2753C37.8039 3.77937 37.9974 4.38174 38 5V10H18V5ZM33 15H30C29.7348 15 29.4804 15.1054 29.2929 15.2929C29.1054 15.4804 29 15.7348 29 16V21C29 21.2652 28.8946 21.5196 28.7071 21.7071C28.5196 21.8946 28.2652 22 28 22C27.7348 22 27.4804 21.8946 27.2929 21.7071C27.1054 21.5196 27 21.2652 27 21V16C27 15.7348 26.8946 15.4804 26.7071 15.2929C26.5196 15.1054 26.2652 15 26 15H23C22.0282 14.9987 21.0779 14.7143 20.2652 14.1815C19.4525 13.6487 18.8127 12.8906 18.424 12H37.576C37.1873 12.8906 36.5475 13.6487 35.7348 14.1815C34.9221 14.7143 33.9718 14.9987 33 15Z" fill="#111238"/>
</svg>
