<svg width="86" height="58" viewBox="0 0 86 58" fill="none" xmlns="http://www.w3.org/2000/svg">
<path d="M50.6364 0H35.3636C33.9175 0.00173221 32.5312 0.576962 31.5086 1.59951C30.4861 2.62206 29.9108 4.00844 29.9091 5.45455V18.5455C29.9108 19.9916 30.4861 21.3779 31.5086 22.4005C32.5312 23.423 33.9175 23.9983 35.3636 24H50.6364C52.0825 23.9983 53.4688 23.423 54.4914 22.4005C55.5139 21.3779 56.0892 19.9916 56.0909 18.5455V5.45455C56.0892 4.00844 55.5139 2.62206 54.4914 1.59951C53.4688 0.576962 52.0825 0.00173221 50.6364 0ZM35.3636 2.18182H50.6364C51.5043 2.18182 52.3368 2.52662 52.9505 3.14038C53.5643 3.75413 53.9091 4.58656 53.9091 5.45455V6.54545H32.0909V5.45455C32.0909 4.58656 32.4357 3.75413 33.0495 3.14038C33.6632 2.52662 34.4957 2.18182 35.3636 2.18182ZM50.6364 21.8182H35.3636C34.4957 21.8182 33.6632 21.4734 33.0495 20.8596C32.4357 20.2459 32.0909 19.4134 32.0909 18.5455V8.72727H53.9091V18.5455C53.9091 19.4134 53.5643 20.2459 52.9505 20.8596C52.3368 21.4734 51.5043 21.8182 50.6364 21.8182ZM50.6364 13.0909C50.6364 13.3802 50.5214 13.6577 50.3168 13.8623C50.1123 14.0669 49.8348 14.1818 49.5455 14.1818H36.4545C36.1652 14.1818 35.8877 14.0669 35.6832 13.8623C35.4786 13.6577 35.3636 13.3802 35.3636 13.0909C35.3636 12.8016 35.4786 12.5241 35.6832 12.3195C35.8877 12.1149 36.1652 12 36.4545 12H49.5455C49.8348 12 50.1123 12.1149 50.3168 12.3195C50.5214 12.5241 50.6364 12.8016 50.6364 13.0909ZM46.2727 17.4545C46.2727 17.7439 46.1578 18.0214 45.9532 18.2259C45.7486 18.4305 45.4711 18.5455 45.1818 18.5455H36.4545C36.1652 18.5455 35.8877 18.4305 35.6832 18.2259C35.4786 18.0214 35.3636 17.7439 35.3636 17.4545C35.3636 17.1652 35.4786 16.8877 35.6832 16.6832C35.8877 16.4786 36.1652 16.3636 36.4545 16.3636H45.1818C45.4711 16.3636 45.7486 16.4786 45.9532 16.6832C46.1578 16.8877 46.2727 17.1652 46.2727 17.4545ZM33.1818 4.36364C33.1818 4.14787 33.2458 3.93696 33.3657 3.75756C33.4855 3.57816 33.6559 3.43834 33.8553 3.35577C34.0546 3.2732 34.2739 3.2516 34.4856 3.29369C34.6972 3.33578 34.8915 3.43968 35.0441 3.59225C35.1967 3.74481 35.3006 3.9392 35.3427 4.15081C35.3848 4.36243 35.3632 4.58177 35.2806 4.78111C35.198 4.98045 35.0582 5.15082 34.8788 5.27069C34.6994 5.39056 34.4885 5.45455 34.2727 5.45455C33.9834 5.45455 33.7059 5.33961 33.5013 5.13503C33.2968 4.93044 33.1818 4.65296 33.1818 4.36364ZM36.4545 4.36364C36.4545 4.14787 36.5185 3.93696 36.6384 3.75756C36.7583 3.57816 36.9286 3.43834 37.128 3.35577C37.3273 3.2732 37.5467 3.2516 37.7583 3.29369C37.9699 3.33578 38.1643 3.43968 38.3168 3.59225C38.4694 3.74481 38.5733 3.9392 38.6154 4.15081C38.6575 4.36243 38.6359 4.58177 38.5533 4.78111C38.4708 4.98045 38.3309 5.15082 38.1515 5.27069C37.9721 5.39056 37.7612 5.45455 37.5455 5.45455C37.2561 5.45455 36.9786 5.33961 36.7741 5.13503C36.5695 4.93044 36.4545 4.65296 36.4545 4.36364ZM39.7273 4.36364C39.7273 4.14787 39.7913 3.93696 39.9111 3.75756C40.031 3.57816 40.2014 3.43834 40.4007 3.35577C40.6 3.2732 40.8194 3.2516 41.031 3.29369C41.2426 3.33578 41.437 3.43968 41.5896 3.59225C41.7421 3.74481 41.846 3.9392 41.8881 4.15081C41.9302 4.36243 41.9086 4.58177 41.826 4.78111C41.7435 4.98045 41.6037 5.15082 41.4243 5.27069C41.2449 5.39056 41.0339 5.45455 40.8182 5.45455C40.5289 5.45455 40.2514 5.33961 40.0468 5.13503C39.8422 4.93044 39.7273 4.65296 39.7273 4.36364Z" fill="#111238"/>
<path d="M4.81631 42.976C6.18165 42.976 7.23765 43.264 7.98431 43.84C8.73098 44.4053 9.10431 45.2533 9.10431 46.384C9.10431 47.5893 8.71498 48.4853 7.93631 49.072C7.15765 49.6587 6.12298 49.952 4.83231 49.952H3.44031V54H1.92031V42.976H4.81631ZM4.76831 48.752C5.65365 48.752 6.32565 48.5813 6.78431 48.24C7.25365 47.8987 7.48831 47.2853 7.48831 46.4C7.48831 45.6107 7.25365 45.04 6.78431 44.688C6.32565 44.336 5.66431 44.16 4.80031 44.16H3.44031V48.752H4.76831ZM15.9422 52.032C15.9422 52.3733 16.0009 52.6293 16.1182 52.8C16.2355 52.96 16.4115 53.0827 16.6462 53.168L16.3102 54.192C15.8729 54.1387 15.5209 54.016 15.2542 53.824C14.9875 53.632 14.7902 53.3333 14.6622 52.928C14.0969 53.7707 13.2595 54.192 12.1502 54.192C11.3182 54.192 10.6622 53.9573 10.1822 53.488C9.70219 53.0187 9.46219 52.4053 9.46219 51.648C9.46219 50.752 9.78219 50.064 10.4222 49.584C11.0729 49.104 11.9902 48.864 13.1742 48.864H14.4702V48.24C14.4702 47.6427 14.3262 47.216 14.0382 46.96C13.7502 46.704 13.3075 46.576 12.7102 46.576C12.0915 46.576 11.3342 46.7253 10.4382 47.024L10.0702 45.952C11.1155 45.568 12.0862 45.376 12.9822 45.376C13.9742 45.376 14.7155 45.6213 15.2062 46.112C15.6969 46.592 15.9422 47.28 15.9422 48.176V52.032ZM12.4862 53.088C13.3289 53.088 13.9902 52.6507 14.4702 51.776V49.84H13.3662C11.8089 49.84 11.0302 50.416 11.0302 51.568C11.0302 52.0693 11.1529 52.448 11.3982 52.704C11.6435 52.96 12.0062 53.088 12.4862 53.088ZM21.0453 45.376C21.5786 45.376 22.0746 45.4667 22.5333 45.648C23.0026 45.8187 23.376 46.0747 23.6533 46.416C23.9413 46.7573 24.0853 47.168 24.0853 47.648C24.0853 48.1173 23.9466 48.5013 23.6693 48.8C23.4026 49.0987 22.976 49.328 22.3893 49.488C23.0933 49.6053 23.6266 49.824 23.9893 50.144C24.352 50.464 24.5333 50.9227 24.5333 51.52C24.5333 52.3947 24.192 53.0613 23.5093 53.52C22.8373 53.968 21.9786 54.192 20.9333 54.192C19.664 54.192 18.5813 53.84 17.6853 53.136L18.4533 52.224C18.8266 52.4907 19.2 52.688 19.5733 52.816C19.9573 52.944 20.3946 53.008 20.8853 53.008C22.2613 53.008 22.9493 52.5067 22.9493 51.504C22.9493 51.0133 22.752 50.672 22.3573 50.48C21.9733 50.2773 21.4346 50.176 20.7413 50.176H19.6213L19.7173 49.024H20.5813C21.1786 49.024 21.6586 48.9173 22.0213 48.704C22.384 48.4907 22.5653 48.16 22.5653 47.712C22.5653 47.296 22.4106 46.9973 22.1013 46.816C21.792 46.624 21.3866 46.528 20.8853 46.528C20.448 46.528 20.0586 46.5867 19.7173 46.704C19.3866 46.8107 19.0506 46.9813 18.7093 47.216L18.0053 46.336C18.432 46.016 18.8906 45.776 19.3813 45.616C19.872 45.456 20.4266 45.376 21.0453 45.376ZM30.8373 45.376C31.9146 45.376 32.704 45.76 33.2053 46.528C33.7066 47.296 33.9573 48.3787 33.9573 49.776C33.9573 51.0987 33.6693 52.1653 33.0933 52.976C32.5173 53.7867 31.7013 54.192 30.6453 54.192C29.7066 54.192 28.9706 53.872 28.4373 53.232V57.232L26.9653 57.408V45.568H28.2293L28.3413 46.704C28.6506 46.2773 29.024 45.952 29.4613 45.728C29.8986 45.4933 30.3573 45.376 30.8373 45.376ZM30.2933 52.992C31.68 52.992 32.3733 51.92 32.3733 49.776C32.3733 47.6213 31.7386 46.544 30.4693 46.544C30.0533 46.544 29.6746 46.6667 29.3333 46.912C28.992 47.1573 28.6933 47.472 28.4373 47.856V51.968C28.6506 52.2987 28.9173 52.5547 29.2373 52.736C29.5573 52.9067 29.9093 52.992 30.2933 52.992ZM41.9891 52.032C41.9891 52.3733 42.0477 52.6293 42.1651 52.8C42.2824 52.96 42.4584 53.0827 42.6931 53.168L42.3571 54.192C41.9197 54.1387 41.5677 54.016 41.3011 53.824C41.0344 53.632 40.8371 53.3333 40.7091 52.928C40.1437 53.7707 39.3064 54.192 38.1971 54.192C37.3651 54.192 36.7091 53.9573 36.2291 53.488C35.7491 53.0187 35.5091 52.4053 35.5091 51.648C35.5091 50.752 35.8291 50.064 36.4691 49.584C37.1197 49.104 38.0371 48.864 39.2211 48.864H40.5171V48.24C40.5171 47.6427 40.3731 47.216 40.0851 46.96C39.7971 46.704 39.3544 46.576 38.7571 46.576C38.1384 46.576 37.3811 46.7253 36.4851 47.024L36.1171 45.952C37.1624 45.568 38.1331 45.376 39.0291 45.376C40.0211 45.376 40.7624 45.6213 41.2531 46.112C41.7437 46.592 41.9891 47.28 41.9891 48.176V52.032ZM38.5331 53.088C39.3757 53.088 40.0371 52.6507 40.5171 51.776V49.84H39.4131C37.8557 49.84 37.0771 50.416 37.0771 51.568C37.0771 52.0693 37.1997 52.448 37.4451 52.704C37.6904 52.96 38.0531 53.088 38.5331 53.088ZM48.6922 46.112C49.6522 46.112 50.4149 46.4587 50.9802 47.152C51.5562 47.8453 51.8442 48.7893 51.8442 49.984C51.8442 51.3173 51.5082 52.352 50.8362 53.088C50.1642 53.824 49.2629 54.192 48.1322 54.192C47.0015 54.192 46.0949 53.792 45.4122 52.992C44.7402 52.192 44.4042 50.9813 44.4042 49.36C44.4042 48.1333 44.4949 47.1307 44.6762 46.352C44.8682 45.5627 45.1935 44.9173 45.6522 44.416C46.1215 43.904 46.7775 43.504 47.6202 43.216C48.2495 43.0027 48.7509 42.8107 49.1242 42.64C49.5082 42.4693 49.8975 42.2507 50.2922 41.984L50.9162 43.088C50.5429 43.3227 50.1535 43.5413 49.7482 43.744C49.3535 43.936 48.8789 44.1227 48.3242 44.304C47.7909 44.4853 47.3695 44.6933 47.0602 44.928C46.7509 45.152 46.5002 45.4827 46.3082 45.92C46.1269 46.3467 46.0042 46.9333 45.9402 47.68C46.2389 47.1893 46.6229 46.8053 47.0922 46.528C47.5615 46.2507 48.0949 46.112 48.6922 46.112ZM48.1322 53.008C48.7829 53.008 49.3002 52.7893 49.6842 52.352C50.0682 51.904 50.2602 51.1307 50.2602 50.032C50.2602 49.0613 50.1002 48.3627 49.7802 47.936C49.4709 47.5093 49.0175 47.296 48.4202 47.296C47.9295 47.296 47.4709 47.4293 47.0442 47.696C46.6175 47.952 46.2655 48.3467 45.9882 48.88V49.904C45.9882 50.896 46.1749 51.664 46.5482 52.208C46.9322 52.7413 47.4602 53.008 48.1322 53.008ZM57.4458 45.376C58.6298 45.376 59.5471 45.7707 60.1978 46.56C60.8591 47.3493 61.1898 48.4213 61.1898 49.776C61.1898 50.6507 61.0405 51.424 60.7418 52.096C60.4431 52.7573 60.0111 53.2747 59.4458 53.648C58.8805 54.0107 58.2085 54.192 57.4298 54.192C56.2458 54.192 55.3231 53.7973 54.6618 53.008C54.0005 52.2187 53.6698 51.1467 53.6698 49.792C53.6698 48.9173 53.8191 48.1493 54.1178 47.488C54.4165 46.816 54.8485 46.2987 55.4138 45.936C55.9791 45.5627 56.6565 45.376 57.4458 45.376ZM57.4458 46.56C55.9845 46.56 55.2538 47.6373 55.2538 49.792C55.2538 51.936 55.9791 53.008 57.4298 53.008C58.8805 53.008 59.6058 51.9307 59.6058 49.776C59.6058 47.632 58.8858 46.56 57.4458 46.56ZM68.9113 45.568L68.7353 46.768H66.0313V54H64.5593V46.768H61.7753V45.568H68.9113ZM76.7541 45.568L74.1941 49.472L77.0581 54H75.3141L72.9781 50.112H71.9061V54H70.4341V45.568H71.9061V48.96H73.0101L75.1381 45.568H76.7541ZM84.1766 52.032C84.1766 52.3733 84.2352 52.6293 84.3526 52.8C84.4699 52.96 84.6459 53.0827 84.8806 53.168L84.5446 54.192C84.1072 54.1387 83.7552 54.016 83.4886 53.824C83.2219 53.632 83.0246 53.3333 82.8966 52.928C82.3312 53.7707 81.4939 54.192 80.3846 54.192C79.5526 54.192 78.8966 53.9573 78.4166 53.488C77.9366 53.0187 77.6966 52.4053 77.6966 51.648C77.6966 50.752 78.0166 50.064 78.6566 49.584C79.3072 49.104 80.2246 48.864 81.4086 48.864H82.7046V48.24C82.7046 47.6427 82.5606 47.216 82.2726 46.96C81.9846 46.704 81.5419 46.576 80.9446 46.576C80.3259 46.576 79.5686 46.7253 78.6726 47.024L78.3046 45.952C79.3499 45.568 80.3206 45.376 81.2166 45.376C82.2086 45.376 82.9499 45.6213 83.4406 46.112C83.9312 46.592 84.1766 47.28 84.1766 48.176V52.032ZM80.7206 53.088C81.5632 53.088 82.2246 52.6507 82.7046 51.776V49.84H81.6006C80.0432 49.84 79.2646 50.416 79.2646 51.568C79.2646 52.0693 79.3872 52.448 79.6326 52.704C79.8779 52.96 80.2406 53.088 80.7206 53.088Z" fill="#111238"/>
</svg>
