<svg width="102" height="58" viewBox="0 0 102 58" fill="none" xmlns="http://www.w3.org/2000/svg">
<g clip-path="url(#clip0)">
<path d="M58 6.00001H53.321C52.9224 5.71592 52.4744 5.50839 52 5.38801V5.00001L55.53 3.34801C55.6747 3.25832 55.7941 3.13318 55.8769 2.98443C55.9598 2.83568 56.0032 2.66825 56.0032 2.49801C56.0032 2.32776 55.9598 2.16033 55.8769 2.01158C55.7941 1.86283 55.6747 1.73769 55.53 1.64801L52.33 0.148006C52.0802 0.0312575 51.8049 -0.0204779 51.5297 -0.0023985C51.2545 0.0156809 50.9883 0.102989 50.7559 0.251422C50.5235 0.399855 50.3323 0.604601 50.2002 0.846656C50.068 1.08871 49.9992 1.36023 50 1.63601V5.38801C49.5258 5.50822 49.0782 5.71577 48.68 6.00001H44C42.6744 6.00159 41.4036 6.52889 40.4662 7.46623C39.5289 8.40356 39.0016 9.67441 39 11V21C39 21.7957 39.3161 22.5587 39.8787 23.1213C40.4413 23.6839 41.2044 24 42 24H60C60.7956 24 61.5587 23.6839 62.1213 23.1213C62.6839 22.5587 63 21.7957 63 21V11C62.9984 9.67441 62.4711 8.40356 61.5338 7.46623C60.5964 6.52889 59.3256 6.00159 58 6.00001ZM60.816 10H58.657C57.8618 9.99798 57.0995 9.68208 56.536 9.12101L55.414 8.00001H58C58.6183 8.00257 59.2206 8.19609 59.7247 8.55409C60.2288 8.9121 60.6099 9.4171 60.816 10ZM44 8.00001H46.586L45.464 9.12101C44.9005 9.68208 44.1382 9.99798 43.343 10H41.184C41.3901 9.4171 41.7712 8.9121 42.2753 8.55409C42.7794 8.19609 43.3817 8.00257 44 8.00001ZM52 22H50V19C50 18.7348 50.1054 18.4804 50.2929 18.2929C50.4804 18.1054 50.7348 18 51 18C51.2652 18 51.5196 18.1054 51.7071 18.2929C51.8946 18.4804 52 18.7348 52 19V22ZM60 22H54V19C54 18.2044 53.6839 17.4413 53.1213 16.8787C52.5587 16.3161 51.7956 16 51 16C50.2044 16 49.4413 16.3161 48.8787 16.8787C48.3161 17.4413 48 18.2044 48 19V22H42C41.7348 22 41.4804 21.8946 41.2929 21.7071C41.1054 21.5196 41 21.2652 41 21V12H43.343C43.9998 12.0016 44.6504 11.873 45.2572 11.6215C45.864 11.37 46.4149 11.0008 46.878 10.535L49.586 7.82801C49.9611 7.45306 50.4697 7.24243 51 7.24243C51.5303 7.24243 52.0389 7.45306 52.414 7.82801L55.122 10.535C55.5851 11.0008 56.136 11.37 56.7428 11.6215C57.3496 11.873 58.0002 12.0016 58.657 12H61V21C61 21.2652 60.8946 21.5196 60.7071 21.7071C60.5196 21.8946 60.2652 22 60 22ZM46 15C46 15.2652 45.8946 15.5196 45.7071 15.7071C45.5196 15.8946 45.2652 16 45 16H44C43.7348 16 43.4804 15.8946 43.2929 15.7071C43.1054 15.5196 43 15.2652 43 15C43 14.7348 43.1054 14.4804 43.2929 14.2929C43.4804 14.1054 43.7348 14 44 14H45C45.2652 14 45.5196 14.1054 45.7071 14.2929C45.8946 14.4804 46 14.7348 46 15ZM46 19C46 19.2652 45.8946 19.5196 45.7071 19.7071C45.5196 19.8946 45.2652 20 45 20H44C43.7348 20 43.4804 19.8946 43.2929 19.7071C43.1054 19.5196 43 19.2652 43 19C43 18.7348 43.1054 18.4804 43.2929 18.2929C43.4804 18.1054 43.7348 18 44 18H45C45.2652 18 45.5196 18.1054 45.7071 18.2929C45.8946 18.4804 46 18.7348 46 19ZM59 15C59 15.2652 58.8946 15.5196 58.7071 15.7071C58.5196 15.8946 58.2652 16 58 16H57C56.7348 16 56.4804 15.8946 56.2929 15.7071C56.1054 15.5196 56 15.2652 56 15C56 14.7348 56.1054 14.4804 56.2929 14.2929C56.4804 14.1054 56.7348 14 57 14H58C58.2652 14 58.5196 14.1054 58.7071 14.2929C58.8946 14.4804 59 14.7348 59 15ZM59 19C59 19.2652 58.8946 19.5196 58.7071 19.7071C58.5196 19.8946 58.2652 20 58 20H57C56.7348 20 56.4804 19.8946 56.2929 19.7071C56.1054 19.5196 56 19.2652 56 19C56 18.7348 56.1054 18.4804 56.2929 18.2929C56.4804 18.1054 56.7348 18 57 18H58C58.2652 18 58.5196 18.1054 58.7071 18.2929C58.8946 18.4804 59 18.7348 59 19ZM53 12C53 12.3956 52.8827 12.7822 52.6629 13.1111C52.4432 13.44 52.1308 13.6964 51.7654 13.8478C51.3999 13.9991 50.9978 14.0387 50.6098 13.9616C50.2219 13.8844 49.8655 13.6939 49.5858 13.4142C49.3061 13.1345 49.1156 12.7781 49.0384 12.3902C48.9613 12.0022 49.0009 11.6001 49.1522 11.2346C49.3036 10.8692 49.56 10.5568 49.8889 10.3371C50.2178 10.1173 50.6044 10 51 10C51.5304 10 52.0391 10.2107 52.4142 10.5858C52.7893 10.9609 53 11.4696 53 12Z" fill="#111238"/>
</g>
<path d="M6.01256 42.784C6.94056 42.784 7.75123 43.008 8.44456 43.456C9.14856 43.8933 9.69256 44.5387 10.0766 45.392C10.4712 46.2453 10.6686 47.28 10.6686 48.496C10.6686 49.6907 10.4712 50.7147 10.0766 51.568C9.69256 52.4213 9.14856 53.072 8.44456 53.52C7.75123 53.968 6.94056 54.192 6.01256 54.192C5.08456 54.192 4.26856 53.9733 3.56456 53.536C2.87123 53.0987 2.32723 52.4533 1.93256 51.6C1.54856 50.7467 1.35656 49.7173 1.35656 48.512C1.35656 47.328 1.54856 46.304 1.93256 45.44C2.32723 44.576 2.87656 43.92 3.58056 43.472C4.28456 43.0133 5.09523 42.784 6.01256 42.784ZM6.01256 44.032C5.05256 44.032 4.3059 44.3947 3.77256 45.12C3.23923 45.8453 2.97256 46.976 2.97256 48.512C2.97256 50.0373 3.23923 51.1573 3.77256 51.872C4.31656 52.5867 5.06323 52.944 6.01256 52.944C8.03923 52.944 9.05256 51.4613 9.05256 48.496C9.05256 45.52 8.03923 44.032 6.01256 44.032ZM16.7547 46.112C17.7147 46.112 18.4774 46.4587 19.0427 47.152C19.6187 47.8453 19.9067 48.7893 19.9067 49.984C19.9067 51.3173 19.5707 52.352 18.8987 53.088C18.2267 53.824 17.3254 54.192 16.1947 54.192C15.064 54.192 14.1574 53.792 13.4747 52.992C12.8027 52.192 12.4667 50.9813 12.4667 49.36C12.4667 48.1333 12.5574 47.1307 12.7387 46.352C12.9307 45.5627 13.256 44.9173 13.7147 44.416C14.184 43.904 14.84 43.504 15.6827 43.216C16.312 43.0027 16.8134 42.8107 17.1867 42.64C17.5707 42.4693 17.96 42.2507 18.3547 41.984L18.9787 43.088C18.6054 43.3227 18.216 43.5413 17.8107 43.744C17.416 43.936 16.9414 44.1227 16.3867 44.304C15.8534 44.4853 15.432 44.6933 15.1227 44.928C14.8134 45.152 14.5627 45.4827 14.3707 45.92C14.1894 46.3467 14.0667 46.9333 14.0027 47.68C14.3014 47.1893 14.6854 46.8053 15.1547 46.528C15.624 46.2507 16.1574 46.112 16.7547 46.112ZM16.1947 53.008C16.8454 53.008 17.3627 52.7893 17.7467 52.352C18.1307 51.904 18.3227 51.1307 18.3227 50.032C18.3227 49.0613 18.1627 48.3627 17.8427 47.936C17.5334 47.5093 17.08 47.296 16.4827 47.296C15.992 47.296 15.5334 47.4293 15.1067 47.696C14.68 47.952 14.328 48.3467 14.0507 48.88V49.904C14.0507 50.896 14.2374 51.664 14.6107 52.208C14.9947 52.7413 15.5227 53.008 16.1947 53.008ZM26.2123 45.376C27.2896 45.376 28.079 45.76 28.5803 46.528C29.0816 47.296 29.3323 48.3787 29.3323 49.776C29.3323 51.0987 29.0443 52.1653 28.4683 52.976C27.8923 53.7867 27.0763 54.192 26.0203 54.192C25.0816 54.192 24.3456 53.872 23.8123 53.232V57.232L22.3403 57.408V45.568H23.6043L23.7163 46.704C24.0256 46.2773 24.399 45.952 24.8363 45.728C25.2736 45.4933 25.7323 45.376 26.2123 45.376ZM25.6683 52.992C27.055 52.992 27.7483 51.92 27.7483 49.776C27.7483 47.6213 27.1136 46.544 25.8443 46.544C25.4283 46.544 25.0496 46.6667 24.7083 46.912C24.367 47.1573 24.0683 47.472 23.8123 47.856V51.968C24.0256 52.2987 24.2923 52.5547 24.6123 52.736C24.9323 52.9067 25.2843 52.992 25.6683 52.992ZM37.3641 52.032C37.3641 52.3733 37.4227 52.6293 37.5401 52.8C37.6574 52.96 37.8334 53.0827 38.0681 53.168L37.7321 54.192C37.2947 54.1387 36.9427 54.016 36.6761 53.824C36.4094 53.632 36.2121 53.3333 36.0841 52.928C35.5187 53.7707 34.6814 54.192 33.5721 54.192C32.7401 54.192 32.0841 53.9573 31.6041 53.488C31.1241 53.0187 30.8841 52.4053 30.8841 51.648C30.8841 50.752 31.2041 50.064 31.8441 49.584C32.4947 49.104 33.4121 48.864 34.5961 48.864H35.8921V48.24C35.8921 47.6427 35.7481 47.216 35.4601 46.96C35.1721 46.704 34.7294 46.576 34.1321 46.576C33.5134 46.576 32.7561 46.7253 31.8601 47.024L31.4921 45.952C32.5374 45.568 33.5081 45.376 34.4041 45.376C35.3961 45.376 36.1374 45.6213 36.6281 46.112C37.1187 46.592 37.3641 47.28 37.3641 48.176V52.032ZM33.9081 53.088C34.7507 53.088 35.4121 52.6507 35.8921 51.776V49.84H34.7881C33.2307 49.84 32.4521 50.416 32.4521 51.568C32.4521 52.0693 32.5747 52.448 32.8201 52.704C33.0654 52.96 33.4281 53.088 33.9081 53.088ZM42.4672 45.376C43.0005 45.376 43.4965 45.4667 43.9552 45.648C44.4245 45.8187 44.7979 46.0747 45.0752 46.416C45.3632 46.7573 45.5072 47.168 45.5072 47.648C45.5072 48.1173 45.3685 48.5013 45.0912 48.8C44.8245 49.0987 44.3979 49.328 43.8112 49.488C44.5152 49.6053 45.0485 49.824 45.4112 50.144C45.7739 50.464 45.9552 50.9227 45.9552 51.52C45.9552 52.3947 45.6139 53.0613 44.9312 53.52C44.2592 53.968 43.4005 54.192 42.3552 54.192C41.0859 54.192 40.0032 53.84 39.1072 53.136L39.8752 52.224C40.2485 52.4907 40.6219 52.688 40.9952 52.816C41.3792 52.944 41.8165 53.008 42.3072 53.008C43.6832 53.008 44.3712 52.5067 44.3712 51.504C44.3712 51.0133 44.1739 50.672 43.7792 50.48C43.3952 50.2773 42.8565 50.176 42.1632 50.176H41.0432L41.1392 49.024H42.0032C42.6005 49.024 43.0805 48.9173 43.4432 48.704C43.8059 48.4907 43.9872 48.16 43.9872 47.712C43.9872 47.296 43.8325 46.9973 43.5232 46.816C43.2139 46.624 42.8085 46.528 42.3072 46.528C41.8699 46.528 41.4805 46.5867 41.1392 46.704C40.8085 46.8107 40.4725 46.9813 40.1312 47.216L39.4272 46.336C39.8539 46.016 40.3125 45.776 40.8032 45.616C41.2939 45.456 41.8485 45.376 42.4672 45.376ZM51.4927 45.376C52.6767 45.376 53.594 45.7707 54.2447 46.56C54.906 47.3493 55.2367 48.4213 55.2367 49.776C55.2367 50.6507 55.0874 51.424 54.7887 52.096C54.49 52.7573 54.058 53.2747 53.4927 53.648C52.9274 54.0107 52.2554 54.192 51.4767 54.192C50.2927 54.192 49.37 53.7973 48.7087 53.008C48.0474 52.2187 47.7167 51.1467 47.7167 49.792C47.7167 48.9173 47.866 48.1493 48.1647 47.488C48.4634 46.816 48.8954 46.2987 49.4607 45.936C50.026 45.5627 50.7034 45.376 51.4927 45.376ZM51.4927 46.56C50.0314 46.56 49.3007 47.6373 49.3007 49.792C49.3007 51.936 50.026 53.008 51.4767 53.008C52.9274 53.008 53.6527 51.9307 53.6527 49.776C53.6527 47.632 52.9327 46.56 51.4927 46.56ZM62.1164 49.424C63.5458 49.5627 64.2604 50.224 64.2604 51.408C64.2604 52.2933 63.9351 52.9493 63.2844 53.376C62.6444 53.792 61.7858 54 60.7084 54H57.6684V45.68C58.6604 45.4773 59.5831 45.376 60.4364 45.376C61.4818 45.376 62.3084 45.5733 62.9164 45.968C63.5244 46.3627 63.8284 46.928 63.8284 47.664C63.8284 48.144 63.6844 48.5333 63.3964 48.832C63.1084 49.1307 62.6818 49.328 62.1164 49.424ZM60.4524 46.512C60.0044 46.512 59.5671 46.544 59.1404 46.608V48.992H60.7244C61.2364 48.992 61.6311 48.896 61.9084 48.704C62.1858 48.512 62.3244 48.1867 62.3244 47.728C62.3244 47.3013 62.1698 46.992 61.8604 46.8C61.5511 46.608 61.0818 46.512 60.4524 46.512ZM60.7084 52.848C61.3378 52.848 61.8284 52.7413 62.1804 52.528C62.5324 52.3147 62.7084 51.9307 62.7084 51.376C62.7084 50.9173 62.5591 50.5867 62.2604 50.384C61.9618 50.1813 61.4551 50.08 60.7404 50.08H59.1404V52.848H60.7084ZM72.2234 52.032C72.2234 52.3733 72.2821 52.6293 72.3994 52.8C72.5168 52.96 72.6928 53.0827 72.9274 53.168L72.5914 54.192C72.1541 54.1387 71.8021 54.016 71.5354 53.824C71.2688 53.632 71.0714 53.3333 70.9434 52.928C70.3781 53.7707 69.5408 54.192 68.4314 54.192C67.5994 54.192 66.9434 53.9573 66.4634 53.488C65.9834 53.0187 65.7434 52.4053 65.7434 51.648C65.7434 50.752 66.0634 50.064 66.7034 49.584C67.3541 49.104 68.2714 48.864 69.4554 48.864H70.7514V48.24C70.7514 47.6427 70.6074 47.216 70.3194 46.96C70.0314 46.704 69.5888 46.576 68.9914 46.576C68.3728 46.576 67.6154 46.7253 66.7194 47.024L66.3514 45.952C67.3968 45.568 68.3674 45.376 69.2634 45.376C70.2554 45.376 70.9968 45.6213 71.4874 46.112C71.9781 46.592 72.2234 47.28 72.2234 48.176V52.032ZM68.7674 53.088C69.6101 53.088 70.2714 52.6507 70.7514 51.776V49.84H69.6474C68.0901 49.84 67.3114 50.416 67.3114 51.568C67.3114 52.0693 67.4341 52.448 67.6794 52.704C67.9248 52.96 68.2874 53.088 68.7674 53.088ZM80.2226 54V50.288H76.7186V54H75.2466V45.568H76.7186V49.104H80.2226V45.568H81.6946V54H80.2226ZM91.2909 54H89.8349V50.192C89.8349 49.552 89.8563 48.944 89.8989 48.368C89.9416 47.792 89.9789 47.4133 90.0109 47.232L86.4749 54H84.7309V45.568H86.1869V49.376C86.1869 49.9413 86.1656 50.528 86.1229 51.136C86.0803 51.7333 86.0483 52.1173 86.0269 52.288L89.5149 45.568H91.2909V54ZM100.693 49.536C100.693 49.7813 100.682 50.032 100.661 50.288H95.2847C95.3487 51.216 95.5834 51.8987 95.9887 52.336C96.394 52.7733 96.9167 52.992 97.5567 52.992C97.962 52.992 98.3354 52.9333 98.6767 52.816C99.018 52.6987 99.3754 52.512 99.7487 52.256L100.389 53.136C99.4927 53.84 98.5114 54.192 97.4447 54.192C96.2714 54.192 95.354 53.808 94.6927 53.04C94.042 52.272 93.7167 51.216 93.7167 49.872C93.7167 48.9973 93.8554 48.224 94.1327 47.552C94.4207 46.8693 94.826 46.336 95.3487 45.952C95.882 45.568 96.506 45.376 97.2207 45.376C98.3407 45.376 99.1994 45.744 99.7967 46.48C100.394 47.216 100.693 48.2347 100.693 49.536ZM99.2367 49.104C99.2367 48.272 99.0714 47.6373 98.7407 47.2C98.41 46.7627 97.914 46.544 97.2527 46.544C96.0474 46.544 95.3914 47.4293 95.2847 49.2H99.2367V49.104Z" fill="#111238"/>
<defs>
<clipPath id="clip0">
<rect width="24" height="24" fill="white" transform="translate(39)"/>
</clipPath>
</defs>
</svg>
