<svg width="104" height="59" viewBox="0 0 104 59" fill="none" xmlns="http://www.w3.org/2000/svg">
<path d="M46.4651 22.2851C46.2465 22.285 46.0339 22.2133 45.86 22.081C45.686 21.9486 45.5602 21.7629 45.5017 21.5523C45.4433 21.3417 45.4555 21.1177 45.5365 20.9146C45.6175 20.7116 45.7627 20.5407 45.9501 20.4281C49.4931 18.3001 49.4931 13.7301 49.4931 11.0001C49.4931 10.2044 49.8091 9.44134 50.3717 8.87873C50.9343 8.31612 51.6974 8.00005 52.4931 8.00005C53.2887 8.00005 54.0518 8.31612 54.6144 8.87873C55.177 9.44134 55.4931 10.2044 55.4931 11.0001C55.4931 11.2653 55.3877 11.5196 55.2002 11.7072C55.0126 11.8947 54.7583 12.0001 54.4931 12.0001C54.2278 12.0001 53.9735 11.8947 53.786 11.7072C53.5984 11.5196 53.4931 11.2653 53.4931 11.0001C53.4931 10.7348 53.3877 10.4805 53.2002 10.2929C53.0126 10.1054 52.7583 10.0001 52.4931 10.0001C52.2278 10.0001 51.9735 10.1054 51.786 10.2929C51.5984 10.4805 51.4931 10.7348 51.4931 11.0001C51.4931 13.9471 51.4931 19.4341 46.9791 22.1431C46.8237 22.236 46.6461 22.2851 46.4651 22.2851ZM51.4281 23.7061C53.7101 21.4061 55.0431 18.1721 55.3891 14.0851C55.4007 13.9539 55.3864 13.8218 55.3469 13.6963C55.3074 13.5707 55.2435 13.4542 55.1588 13.3534C55.0742 13.2526 54.9705 13.1695 54.8537 13.1089C54.7368 13.0482 54.6092 13.0112 54.4781 13.0001C54.3468 12.9866 54.2142 12.9997 54.0882 13.0385C53.9621 13.0774 53.8452 13.1412 53.7443 13.2262C53.6434 13.3113 53.5607 13.4157 53.5011 13.5333C53.4414 13.651 53.406 13.7794 53.3971 13.9111C53.0861 17.5681 51.9781 20.3111 50.0091 22.2921C49.8221 22.4802 49.7175 22.735 49.7184 23.0002C49.7192 23.2655 49.8254 23.5196 50.0136 23.7066C50.2017 23.8935 50.4565 23.9981 50.7217 23.9973C50.987 23.9964 51.2411 23.8902 51.4281 23.7021V23.7061ZM56.6281 23.5201C57.2346 22.5122 57.7398 21.4466 58.1361 20.3391C58.2189 20.0913 58.2015 19.821 58.0877 19.586C57.9738 19.3509 57.7725 19.1697 57.5268 19.0811C57.2811 18.9926 57.0104 19.0037 56.7728 19.112C56.5351 19.2204 56.3493 19.4175 56.2551 19.6611C55.903 20.6431 55.4548 21.588 54.9171 22.4821C54.8489 22.5944 54.8035 22.7191 54.7836 22.8489C54.7636 22.9788 54.7694 23.1114 54.8006 23.239C54.8319 23.3666 54.888 23.4869 54.9657 23.5928C55.0434 23.6988 55.1412 23.7884 55.2536 23.8566C55.4804 23.9942 55.7527 24.0361 56.0105 23.973C56.1381 23.9417 56.2584 23.8856 56.3643 23.8079C56.4703 23.7302 56.5599 23.6324 56.6281 23.5201ZM58.9931 17.1911C59.3635 15.1489 59.531 13.0752 59.4931 11.0001C59.4921 9.58335 59.0613 8.20028 58.2576 7.03361C57.4539 5.86694 56.3151 4.9716 54.9918 4.46589C53.6684 3.96019 52.2227 3.86793 50.8458 4.20131C49.4689 4.53469 48.2255 5.27801 47.2801 6.33305C47.188 6.43005 47.1163 6.54454 47.0692 6.66974C47.0222 6.79494 47.0007 6.92831 47.0061 7.06194C47.0115 7.19558 47.0437 7.32678 47.1007 7.44777C47.1577 7.56876 47.2384 7.67708 47.338 7.76633C47.4377 7.85557 47.5542 7.92393 47.6807 7.96735C47.8072 8.01077 47.9411 8.02838 48.0745 8.01912C48.208 8.00986 48.3382 7.97394 48.4575 7.91346C48.5768 7.85299 48.6827 7.7692 48.7691 7.66705C49.4443 6.91333 50.3324 6.38226 51.316 6.14402C52.2995 5.90578 53.3322 5.97159 54.2775 6.33276C55.2228 6.69392 56.0363 7.33344 56.6105 8.16678C57.1846 9.00013 57.4924 9.98807 57.4931 11.0001C57.5299 12.9469 57.3752 14.8926 57.0311 16.8091C56.9806 17.0692 57.0354 17.3388 57.1835 17.5585C57.3317 17.7783 57.561 17.9303 57.8211 17.9811C57.8846 17.9938 57.9493 18.0001 58.0141 18.0001C58.2457 17.9995 58.4699 17.9185 58.6485 17.7709C58.827 17.6234 58.9488 17.4184 58.9931 17.1911ZM47.4931 11.0001C47.4928 10.7209 47.5158 10.4423 47.5621 10.1671C47.5919 10.0345 47.5945 9.89734 47.5696 9.76381C47.5446 9.63028 47.4928 9.50322 47.4171 9.3904C47.3415 9.27757 47.2437 9.18133 47.1296 9.10756C47.0156 9.03379 46.8877 8.98403 46.7538 8.96131C46.6198 8.93859 46.4827 8.9434 46.3507 8.97543C46.2187 9.00746 46.0946 9.06606 45.986 9.14763C45.8774 9.2292 45.7865 9.33205 45.719 9.44989C45.6514 9.56773 45.6086 9.69811 45.5931 9.83305C45.527 10.2186 45.4936 10.6089 45.4931 11.0001C45.4931 15.6451 44.1471 18.0001 41.4931 18.0001C41.2278 18.0001 40.9735 18.1054 40.786 18.2929C40.5984 18.4805 40.4931 18.7348 40.4931 19.0001C40.4931 19.2653 40.5984 19.5196 40.786 19.7072C40.9735 19.8947 41.2278 20.0001 41.4931 20.0001C45.3621 20.0001 47.4931 16.8001 47.4931 11.0001ZM61.1931 23.4141C62.8387 19.4882 63.6231 15.2549 63.4931 11.0001C63.4977 9.33897 63.1214 7.69896 62.3931 6.20605C62.3356 6.08786 62.2554 5.98215 62.1571 5.89494C62.0588 5.80773 61.9443 5.74074 61.8201 5.6978C61.6959 5.65485 61.5645 5.63678 61.4333 5.64464C61.3021 5.65249 61.1737 5.6861 61.0556 5.74355C60.9374 5.801 60.8317 5.88117 60.7444 5.97948C60.6572 6.07779 60.5903 6.19232 60.5473 6.31651C60.5044 6.44071 60.4863 6.57215 60.4941 6.70333C60.502 6.83451 60.5356 6.96286 60.5931 7.08105C61.1881 8.30162 61.496 9.64217 61.4931 11.0001C61.6189 14.9688 60.8965 18.9188 59.3741 22.5861C59.3199 22.7058 59.2898 22.8351 59.2856 22.9664C59.2814 23.0978 59.3031 23.2287 59.3496 23.3517C59.396 23.4747 59.4662 23.5873 59.5562 23.6831C59.6462 23.7789 59.7542 23.856 59.8741 23.9101C60.0036 23.9696 60.1445 24.0003 60.2871 24.0001C60.4783 23.9992 60.6653 23.9436 60.8259 23.8397C60.9865 23.7359 61.1139 23.5881 61.1931 23.4141ZM43.4931 14.0001V11.0001C43.4957 8.61392 44.4448 6.32627 46.132 4.63901C47.8193 2.95176 50.1069 2.0027 52.4931 2.00005C54.4414 1.99356 56.3382 2.62583 57.8931 3.80005C58.1052 3.95918 58.3719 4.02751 58.6345 3.99C58.897 3.95249 59.1339 3.81222 59.2931 3.60005C59.4522 3.38788 59.5205 3.12118 59.483 2.85863C59.4455 2.59608 59.3052 2.35918 59.0931 2.20005C57.1924 0.765473 54.8743 -0.0072348 52.4931 5.10545e-05C49.5767 0.00349153 46.7808 1.16352 44.7187 3.22568C42.6565 5.28783 41.4965 8.08373 41.4931 11.0001V14.0001C41.4931 14.2653 41.5984 14.5196 41.786 14.7072C41.9735 14.8947 42.2278 15.0001 42.4931 15.0001C42.7583 15.0001 43.0126 14.8947 43.2002 14.7072C43.3877 14.5196 43.4931 14.2653 43.4931 14.0001Z" fill="#111238"/>
<path d="M5.28694 47.1217C6.6096 47.1217 7.63894 47.4043 8.37494 47.9697C9.1216 48.535 9.49494 49.3723 9.49494 50.4817C9.49494 51.6977 9.11094 52.5883 8.34294 53.1537C7.5856 53.719 6.5456 54.0017 5.22294 54.0017H2.31094V42.9777H8.31094L8.11894 44.2257H3.83094V47.1217H5.28694ZM5.35094 52.7857C6.1616 52.7857 6.7856 52.6203 7.22294 52.2897C7.66027 51.959 7.87894 51.367 7.87894 50.5137C7.87894 49.7243 7.66027 49.159 7.22294 48.8177C6.7856 48.4763 6.1456 48.3057 5.30294 48.3057H3.83094V52.7857H5.35094ZM17.8646 49.5377C17.8646 49.783 17.8539 50.0337 17.8326 50.2897H12.4566C12.5206 51.2177 12.7552 51.9003 13.1606 52.3377C13.5659 52.775 14.0886 52.9937 14.7286 52.9937C15.1339 52.9937 15.5072 52.935 15.8486 52.8177C16.1899 52.7003 16.5472 52.5137 16.9206 52.2577L17.5606 53.1377C16.6646 53.8417 15.6832 54.1937 14.6166 54.1937C13.4432 54.1937 12.5259 53.8097 11.8646 53.0417C11.2139 52.2737 10.8886 51.2177 10.8886 49.8737C10.8886 48.999 11.0272 48.2257 11.3046 47.5537C11.5926 46.871 11.9979 46.3377 12.5206 45.9537C13.0539 45.5697 13.6779 45.3777 14.3926 45.3777C15.5126 45.3777 16.3712 45.7457 16.9686 46.4817C17.5659 47.2177 17.8646 48.2363 17.8646 49.5377ZM16.4086 49.1057C16.4086 48.2737 16.2432 47.639 15.9126 47.2017C15.5819 46.7643 15.0859 46.5457 14.4246 46.5457C13.2192 46.5457 12.5632 47.431 12.4566 49.2017H16.4086V49.1057ZM21.8891 45.3777C22.4224 45.3777 22.9184 45.4683 23.3771 45.6497C23.8464 45.8203 24.2197 46.0763 24.4971 46.4177C24.7851 46.759 24.9291 47.1697 24.9291 47.6497C24.9291 48.119 24.7904 48.503 24.5131 48.8017C24.2464 49.1003 23.8197 49.3297 23.2331 49.4897C23.9371 49.607 24.4704 49.8257 24.8331 50.1457C25.1957 50.4657 25.3771 50.9243 25.3771 51.5217C25.3771 52.3963 25.0357 53.063 24.3531 53.5217C23.6811 53.9697 22.8224 54.1937 21.7771 54.1937C20.5077 54.1937 19.4251 53.8417 18.5291 53.1377L19.2971 52.2257C19.6704 52.4923 20.0437 52.6897 20.4171 52.8177C20.8011 52.9457 21.2384 53.0097 21.7291 53.0097C23.1051 53.0097 23.7931 52.5083 23.7931 51.5057C23.7931 51.015 23.5957 50.6737 23.2011 50.4817C22.8171 50.279 22.2784 50.1777 21.5851 50.1777H20.4651L20.5611 49.0257H21.4251C22.0224 49.0257 22.5024 48.919 22.8651 48.7057C23.2277 48.4923 23.4091 48.1617 23.4091 47.7137C23.4091 47.2977 23.2544 46.999 22.9451 46.8177C22.6357 46.6257 22.2304 46.5297 21.7291 46.5297C21.2917 46.5297 20.9024 46.5883 20.5611 46.7057C20.2304 46.8123 19.8944 46.983 19.5531 47.2177L18.8491 46.3377C19.2757 46.0177 19.7344 45.7777 20.2251 45.6177C20.7157 45.4577 21.2704 45.3777 21.8891 45.3777ZM30.9146 45.3777C32.0986 45.3777 33.0159 45.7723 33.6666 46.5617C34.3279 47.351 34.6586 48.423 34.6586 49.7777C34.6586 50.6523 34.5092 51.4257 34.2106 52.0977C33.9119 52.759 33.4799 53.2763 32.9146 53.6497C32.3492 54.0123 31.6772 54.1937 30.8986 54.1937C29.7146 54.1937 28.7919 53.799 28.1306 53.0097C27.4692 52.2203 27.1386 51.1483 27.1386 49.7937C27.1386 48.919 27.2879 48.151 27.5866 47.4897C27.8852 46.8177 28.3172 46.3003 28.8826 45.9377C29.4479 45.5643 30.1252 45.3777 30.9146 45.3777ZM30.9146 46.5617C29.4532 46.5617 28.7226 47.639 28.7226 49.7937C28.7226 51.9377 29.4479 53.0097 30.8986 53.0097C32.3492 53.0097 33.0746 51.9323 33.0746 49.7777C33.0746 47.6337 32.3546 46.5617 30.9146 46.5617ZM42.0183 54.0017V46.7697H38.5623V54.0017H37.0903V45.5697H43.4903V54.0017H42.0183ZM52.2078 52.0337C52.2078 52.375 52.2665 52.631 52.3838 52.8017C52.5011 52.9617 52.6771 53.0843 52.9118 53.1697L52.5758 54.1937C52.1385 54.1403 51.7865 54.0177 51.5198 53.8257C51.2531 53.6337 51.0558 53.335 50.9278 52.9297C50.3625 53.7723 49.5251 54.1937 48.4158 54.1937C47.5838 54.1937 46.9278 53.959 46.4478 53.4897C45.9678 53.0203 45.7278 52.407 45.7278 51.6497C45.7278 50.7537 46.0478 50.0657 46.6878 49.5857C47.3385 49.1057 48.2558 48.8657 49.4398 48.8657H50.7358V48.2417C50.7358 47.6443 50.5918 47.2177 50.3038 46.9617C50.0158 46.7057 49.5731 46.5777 48.9758 46.5777C48.3571 46.5777 47.5998 46.727 46.7038 47.0257L46.3358 45.9537C47.3811 45.5697 48.3518 45.3777 49.2478 45.3777C50.2398 45.3777 50.9811 45.623 51.4718 46.1137C51.9625 46.5937 52.2078 47.2817 52.2078 48.1777V52.0337ZM48.7518 53.0897C49.5945 53.0897 50.2558 52.6523 50.7358 51.7777V49.8417H49.6318C48.0745 49.8417 47.2958 50.4177 47.2958 51.5697C47.2958 52.071 47.4185 52.4497 47.6638 52.7057C47.9091 52.9617 48.2718 53.0897 48.7518 53.0897ZM58.3029 45.3777C58.8043 45.3777 59.2629 45.4523 59.6789 45.6017C60.0949 45.7403 60.4949 45.9697 60.8789 46.2897L60.1749 47.2177C59.8763 47.0043 59.5829 46.8497 59.2949 46.7537C59.0176 46.647 58.7083 46.5937 58.3669 46.5937C57.6843 46.5937 57.1509 46.8657 56.7669 47.4097C56.3936 47.9537 56.2069 48.759 56.2069 49.8257C56.2069 50.8923 56.3936 51.6817 56.7669 52.1937C57.1403 52.695 57.6736 52.9457 58.3669 52.9457C58.6976 52.9457 59.0016 52.8977 59.2789 52.8017C59.5563 52.695 59.8656 52.5297 60.2069 52.3057L60.8789 53.2657C60.1109 53.8843 59.2523 54.1937 58.3029 54.1937C57.1616 54.1937 56.2603 53.8097 55.5989 53.0417C54.9483 52.2737 54.6229 51.2123 54.6229 49.8577C54.6229 48.9617 54.7723 48.1777 55.0709 47.5057C55.3696 46.8337 55.7909 46.311 56.3349 45.9377C56.8896 45.5643 57.5456 45.3777 58.3029 45.3777ZM67.8476 54.0017V50.2897H64.3436V54.0017H62.8716V45.5697H64.3436V49.1057H67.8476V45.5697H69.3196V54.0017H67.8476ZM75.5239 45.3777C76.7079 45.3777 77.6253 45.7723 78.2759 46.5617C78.9373 47.351 79.2679 48.423 79.2679 49.7777C79.2679 50.6523 79.1186 51.4257 78.8199 52.0977C78.5213 52.759 78.0893 53.2763 77.5239 53.6497C76.9586 54.0123 76.2866 54.1937 75.5079 54.1937C74.3239 54.1937 73.4013 53.799 72.7399 53.0097C72.0786 52.2203 71.7479 51.1483 71.7479 49.7937C71.7479 48.919 71.8973 48.151 72.1959 47.4897C72.4946 46.8177 72.9266 46.3003 73.4919 45.9377C74.0573 45.5643 74.7346 45.3777 75.5239 45.3777ZM75.5239 46.5617C74.0626 46.5617 73.3319 47.639 73.3319 49.7937C73.3319 51.9377 74.0573 53.0097 75.5079 53.0097C76.9586 53.0097 77.6839 51.9323 77.6839 49.7777C77.6839 47.6337 76.9639 46.5617 75.5239 46.5617ZM84.7717 45.3777C85.273 45.3777 85.7317 45.4523 86.1477 45.6017C86.5637 45.7403 86.9637 45.9697 87.3477 46.2897L86.6437 47.2177C86.345 47.0043 86.0517 46.8497 85.7637 46.7537C85.4864 46.647 85.177 46.5937 84.8357 46.5937C84.153 46.5937 83.6197 46.8657 83.2357 47.4097C82.8624 47.9537 82.6757 48.759 82.6757 49.8257C82.6757 50.8923 82.8624 51.6817 83.2357 52.1937C83.609 52.695 84.1424 52.9457 84.8357 52.9457C85.1664 52.9457 85.4704 52.8977 85.7477 52.8017C86.025 52.695 86.3344 52.5297 86.6757 52.3057L87.3477 53.2657C86.5797 53.8843 85.721 54.1937 84.7717 54.1937C83.6304 54.1937 82.729 53.8097 82.0677 53.0417C81.417 52.2737 81.0917 51.2123 81.0917 49.8577C81.0917 48.9617 81.241 48.1777 81.5397 47.5057C81.8384 46.8337 82.2597 46.311 82.8037 45.9377C83.3584 45.5643 84.0144 45.3777 84.7717 45.3777ZM95.0363 45.5697L94.8603 46.7697H92.1563V54.0017H90.6843V46.7697H87.9003V45.5697H95.0363ZM99.1511 48.2897C100.41 48.2897 101.322 48.535 101.887 49.0257C102.452 49.5163 102.735 50.215 102.735 51.1217C102.735 52.071 102.415 52.791 101.775 53.2817C101.146 53.7617 100.362 54.0017 99.4231 54.0017H96.5591V45.5697H98.0311V48.2897H99.1511ZM99.2951 52.8497C99.8924 52.8497 100.351 52.7163 100.671 52.4497C101.002 52.183 101.167 51.7403 101.167 51.1217C101.167 50.535 101.012 50.103 100.703 49.8257C100.404 49.5483 99.8817 49.4097 99.1351 49.4097H98.0311V52.8497H99.2951Z" fill="#111238"/>
</svg>
