<svg width="48" height="58" viewBox="0 0 48 58" fill="none" xmlns="http://www.w3.org/2000/svg">
<g clip-path="url(#clip0)">
<path d="M34.9 8.95501C34.5689 8.78723 34.1975 8.71554 33.8277 8.74806C33.458 8.78058 33.1047 8.91601 32.808 9.13901L30.975 10.5C30.8495 9.2673 30.2714 8.1249 29.3525 7.2937C28.4336 6.4625 27.2391 6.00157 26 6.00001H25.915L21.793 1.87901C21.5153 1.59935 21.1848 1.37764 20.8207 1.22674C20.4566 1.07585 20.0661 0.998781 19.672 1.00001H13C12.7348 1.00001 12.4804 1.10537 12.2929 1.29291C12.1054 1.48044 12 1.7348 12 2.00001C12 2.26523 12.1054 2.51959 12.2929 2.70712C12.4804 2.89466 12.7348 3.00001 13 3.00001H19.672C19.9371 3.00073 20.1911 3.10602 20.379 3.29301L23.086 6.00001H17C15.6744 6.0016 14.4036 6.5289 13.4662 7.46623C12.5289 8.40357 12.0016 9.67442 12 11L12 19C12.0016 20.3256 12.5289 21.5965 13.4662 22.5338C14.4036 23.4711 15.6744 23.9984 17 24H26C27.2391 23.9985 28.4336 23.5375 29.3525 22.7063C30.2714 21.8751 30.8495 20.7327 30.975 19.5L32.805 20.864C33.1021 21.0869 33.4555 21.2226 33.8254 21.2559C34.1953 21.2893 34.5672 21.219 34.8994 21.0529C35.2316 20.8868 35.511 20.6314 35.7063 20.3155C35.9016 19.9995 36.005 19.6354 36.005 19.264V10.743C36.0063 10.3715 35.9034 10.0071 35.7081 9.69104C35.5128 9.375 35.2329 9.12003 34.9 8.95501ZM29 19C29 19.7957 28.6839 20.5587 28.1213 21.1213C27.5587 21.6839 26.7956 22 26 22H17C16.2044 22 15.4413 21.6839 14.8787 21.1213C14.3161 20.5587 14 19.7957 14 19V11C14 10.2044 14.3161 9.4413 14.8787 8.87869C15.4413 8.31608 16.2044 8.00001 17 8.00001H26C26.7956 8.00001 27.5587 8.31608 28.1213 8.87869C28.6839 9.4413 29 10.2044 29 11V19ZM34 19.257L31 17.021V12.979L34 10.743V19.257Z" fill="#111238"/>
</g>
<path d="M7.32338 48.176C8.08071 48.304 8.69404 48.5707 9.16338 48.976C9.63271 49.3813 9.86738 50.0107 9.86738 50.864C9.86738 52.9547 8.41138 54 5.49938 54H2.45938V42.976H5.06738C6.46471 42.976 7.53138 43.2053 8.26738 43.664C9.01404 44.1227 9.38738 44.8213 9.38738 45.76C9.38738 46.4 9.18471 46.9333 8.77938 47.36C8.38471 47.7867 7.89938 48.0587 7.32338 48.176ZM3.97938 44.176V47.648H5.64338C6.28338 47.648 6.80604 47.4933 7.21138 47.184C7.62738 46.8747 7.83538 46.4373 7.83538 45.872C7.83538 45.232 7.61671 44.7893 7.17938 44.544C6.75271 44.2987 6.10204 44.176 5.22738 44.176H3.97938ZM5.49938 52.784C6.39538 52.784 7.07804 52.6507 7.54738 52.384C8.02738 52.1173 8.26738 51.6107 8.26738 50.864C8.26738 50.1387 8.03804 49.616 7.57938 49.296C7.12071 48.976 6.52338 48.816 5.78738 48.816H3.97938V52.784H5.49938ZM18.6737 54H17.2178V50.192C17.2178 49.552 17.2391 48.944 17.2818 48.368C17.3244 47.792 17.3618 47.4133 17.3938 47.232L13.8578 54H12.1138V45.568H13.5698V49.376C13.5698 49.9413 13.5484 50.528 13.5058 51.136C13.4631 51.7333 13.4311 52.1173 13.4098 52.288L16.8978 45.568H18.6737V54ZM28.4755 52.816V56.4H27.2755L27.0355 54H21.6275L21.3875 56.4H20.1875V52.816H20.7795C21.0355 52.6453 21.2382 52.4533 21.3875 52.24C21.5368 52.016 21.6702 51.632 21.7875 51.088C21.9155 50.544 22.0168 49.7493 22.0915 48.704L22.3155 45.568H27.5955V52.816H28.4755ZM26.1235 46.736H23.6435L23.5155 48.512C23.4408 49.504 23.3555 50.2667 23.2595 50.8C23.1635 51.3333 23.0248 51.744 22.8435 52.032C22.6728 52.32 22.4222 52.5813 22.0915 52.816H26.1235V46.736ZM36.9661 49.536C36.9661 49.7813 36.9555 50.032 36.9341 50.288H31.5581C31.6221 51.216 31.8568 51.8987 32.2621 52.336C32.6675 52.7733 33.1901 52.992 33.8301 52.992C34.2355 52.992 34.6088 52.9333 34.9501 52.816C35.2915 52.6987 35.6488 52.512 36.0221 52.256L36.6621 53.136C35.7661 53.84 34.7848 54.192 33.7181 54.192C32.5448 54.192 31.6275 53.808 30.9661 53.04C30.3155 52.272 29.9901 51.216 29.9901 49.872C29.9901 48.9973 30.1288 48.224 30.4061 47.552C30.6941 46.8693 31.0995 46.336 31.6221 45.952C32.1555 45.568 32.7795 45.376 33.4941 45.376C34.6141 45.376 35.4728 45.744 36.0701 46.48C36.6675 47.216 36.9661 48.2347 36.9661 49.536ZM35.5101 49.104C35.5101 48.272 35.3448 47.6373 35.0141 47.2C34.6835 46.7627 34.1875 46.544 33.5261 46.544C32.3208 46.544 31.6648 47.4293 31.5581 49.2H35.5101V49.104ZM42.4849 45.376C43.6689 45.376 44.5862 45.7707 45.2369 46.56C45.8982 47.3493 46.2289 48.4213 46.2289 49.776C46.2289 50.6507 46.0795 51.424 45.7809 52.096C45.4822 52.7573 45.0502 53.2747 44.4849 53.648C43.9195 54.0107 43.2475 54.192 42.4689 54.192C41.2849 54.192 40.3622 53.7973 39.7009 53.008C39.0395 52.2187 38.7089 51.1467 38.7089 49.792C38.7089 48.9173 38.8582 48.1493 39.1569 47.488C39.4555 46.816 39.8875 46.2987 40.4529 45.936C41.0182 45.5627 41.6955 45.376 42.4849 45.376ZM42.4849 46.56C41.0235 46.56 40.2929 47.6373 40.2929 49.792C40.2929 51.936 41.0182 53.008 42.4689 53.008C43.9195 53.008 44.6449 51.9307 44.6449 49.776C44.6449 47.632 43.9249 46.56 42.4849 46.56Z" fill="#111238"/>
<defs>
<clipPath id="clip0">
<rect width="24" height="24" fill="white" transform="translate(12)"/>
</clipPath>
</defs>
</svg>
